<svg width="248" height="32" viewBox="0 0 248 32" fill="none" xmlns="http://www.w3.org/2000/svg">
<rect x="40.5" y="0.499023" width="31" height="31" rx="2.5" fill="white" stroke="#E9E9E9"/>
<path d="M53.972 20.999V19.571H55.892V13.955H54.272V12.863C55.172 12.695 55.772 12.467 56.348 12.119H57.656V19.571H59.324V20.999H53.972Z" fill="black"/>
<rect x="74" y="-0.000976562" width="32" height="32" rx="3" fill="white"/>
<path d="M87.528 20.999V20.363C90.288 17.951 91.548 16.187 91.548 14.687C91.548 13.679 91.032 12.935 89.94 12.935C89.22 12.935 88.596 13.379 88.104 13.955L87.468 13.343C88.188 12.563 88.956 12.047 90.072 12.047C91.644 12.047 92.628 13.067 92.628 14.639C92.628 16.403 91.248 18.191 89.172 20.147C89.64 20.099 90.168 20.063 90.612 20.063H93.048V20.999H87.528Z" fill="#AAAAAA"/>
<rect x="108" y="-0.000976562" width="32" height="32" rx="3" fill="white"/>
<path d="M124.156 21.167C122.776 21.167 121.924 20.591 121.348 19.955L121.9 19.235C122.416 19.775 123.076 20.255 124.084 20.255C125.128 20.255 125.872 19.619 125.872 18.611C125.872 17.555 125.164 16.859 123.136 16.859V16.007C124.948 16.007 125.56 15.287 125.56 14.327C125.56 13.487 124.996 12.935 124.084 12.935C123.376 12.935 122.752 13.295 122.26 13.799L121.672 13.091C122.332 12.491 123.112 12.047 124.12 12.047C125.596 12.047 126.676 12.851 126.676 14.255C126.676 15.323 126.052 16.031 125.116 16.367V16.415C126.148 16.667 126.988 17.447 126.988 18.659C126.988 20.219 125.728 21.167 124.156 21.167Z" fill="#AAAAAA"/>
<rect x="142" y="-0.000976562" width="32" height="32" rx="3" fill="white"/>
<path d="M159.068 20.999V15.011C159.068 14.567 159.104 13.859 159.14 13.403H159.08C158.864 13.835 158.624 14.279 158.384 14.711L156.38 17.711H161.276V18.575H155.228V17.855L158.888 12.203H160.1V20.999H159.068Z" fill="#AAAAAA"/>
<rect x="176" y="-0.000976562" width="32" height="32" rx="3" fill="white"/>
<path d="M192.132 21.167C190.764 21.167 189.924 20.591 189.324 19.991L189.876 19.271C190.368 19.787 191.016 20.255 192.024 20.255C193.068 20.255 193.896 19.451 193.896 18.179C193.896 16.919 193.176 16.163 192.084 16.163C191.496 16.163 191.124 16.355 190.62 16.691L190.032 16.319L190.308 12.203H194.592V13.139H191.268L191.04 15.683C191.436 15.467 191.832 15.335 192.36 15.335C193.824 15.335 195.012 16.199 195.012 18.143C195.012 20.063 193.608 21.167 192.132 21.167Z" fill="#AAAAAA"/>
<rect y="-0.000976562" width="32" height="32" rx="3" fill="white"/>
<path d="M20 21.999L13 15.999L20 9.99902" stroke="#AAAAAA" stroke-width="2" stroke-linecap="round"/>
<rect x="216" y="-0.000976562" width="32" height="32" rx="3" fill="white"/>
<path d="M228 21.999L235 15.999L228 9.99902" stroke="#AAAAAA" stroke-width="2" stroke-linecap="round"/>
</svg>
